<svg width="31" height="31" viewBox="0 0 31 31" fill="none" xmlns="http://www.w3.org/2000/svg">
<path d="M17.1433 0.806274C18.8341 0.809069 19.6909 0.818023 20.4313 0.840064L20.7229 0.849589C21.0598 0.861563 21.3921 0.876587 21.7928 0.895367C23.3915 0.96924 24.4821 1.22214 25.4399 1.59398C26.4301 1.97585 27.2665 2.49167 28.1015 3.32677C28.9354 4.16185 29.4513 5.00069 29.8344 5.98852C30.2049 6.94505 30.4579 8.03681 30.533 9.6356C30.5509 10.0363 30.5653 10.3686 30.5772 10.7055L30.5866 10.9971C30.6086 11.7374 30.6186 12.5943 30.6218 14.2852L30.623 15.4054C30.6232 15.5423 30.6232 15.6835 30.6232 15.8292L30.623 16.253L30.6221 17.3734C30.6193 19.0642 30.6104 19.9212 30.5883 20.6614L30.5787 20.953C30.5668 21.29 30.5518 21.6223 30.533 22.0229C30.4591 23.6217 30.2049 24.7122 29.8344 25.67C29.4525 26.6604 28.9354 27.4967 28.1015 28.3318C27.2665 29.1656 26.4264 29.6814 25.4399 30.0645C24.4821 30.4351 23.3915 30.688 21.7928 30.7631C21.3921 30.781 21.0598 30.7956 20.7229 30.8073L20.4313 30.8168C19.6909 30.8388 18.8341 30.8488 17.1433 30.8521L16.023 30.8533C15.8861 30.8533 15.7449 30.8533 15.5992 30.8533H15.1753L14.055 30.8522C12.3642 30.8495 11.5072 30.8405 10.7669 30.8184L10.4754 30.8089C10.1384 30.7969 9.80611 30.7819 9.40548 30.7631C7.80667 30.6894 6.71743 30.4351 5.7584 30.0645C4.76931 29.6827 3.93172 29.1656 3.09664 28.3318C2.26156 27.4967 1.74699 26.6566 1.36388 25.67C0.992036 24.7122 0.740385 23.6217 0.665264 22.0229C0.647416 21.6223 0.632858 21.29 0.621064 20.953L0.611614 20.6614C0.589634 19.9212 0.579613 19.0642 0.576367 17.3734L0.576172 14.2852C0.578966 12.5943 0.587906 11.7374 0.609946 10.9971L0.619486 10.7055C0.63146 10.3686 0.646484 10.0363 0.665264 9.6356C0.739122 8.03554 0.992036 6.9463 1.36388 5.98852C1.74573 4.99944 2.26156 4.16185 3.09664 3.32677C3.93172 2.49167 4.77057 1.9771 5.7584 1.59398C6.71618 1.22214 7.80542 0.970487 9.40548 0.895367C9.80611 0.877533 10.1384 0.862975 10.4754 0.851181L10.7669 0.841731C11.5072 0.819736 12.3642 0.809715 14.055 0.80647L17.1433 0.806274ZM15.5992 8.31724C11.4481 8.31724 8.08712 11.6819 8.08712 15.8292C8.08712 19.9802 11.4518 23.3412 15.5992 23.3412C19.7501 23.3412 23.1112 19.9766 23.1112 15.8292C23.1112 11.6783 19.7464 8.31724 15.5992 8.31724ZM15.5992 11.3221C18.0885 11.3221 20.1064 13.3393 20.1064 15.8292C20.1064 18.3186 18.0891 20.3364 15.5992 20.3364C13.1098 20.3364 11.0919 18.3193 11.0919 15.8292C11.0919 13.3399 13.1091 11.3221 15.5992 11.3221ZM23.4868 6.06364C22.4512 6.06364 21.6088 6.90485 21.6088 7.94037C21.6088 8.9759 22.4499 9.8184 23.4868 9.8184C24.5222 9.8184 25.3648 8.9772 25.3648 7.94037C25.3648 6.90485 24.5209 6.06235 23.4868 6.06364Z" fill="#333333"/>
</svg>
